<svg xmlns="http://www.w3.org/2000/svg" viewBox="0 0 476.73 151.63"><defs><style>.cls-1{fill:#73788c;}.cls-2{fill:#b08d57;}</style></defs><g id="Layer_2" data-name="Layer 2"><g id="Layer_2-2" data-name="Layer 2"><path class="cls-1" d="M129.67,69h-9.24V24.74h9.24Z"/><path class="cls-1" d="M162.34,69H153.6V64.75h-.11a9.76,9.76,0,0,1-8.92,5,9.35,9.35,0,0,1-6.85-2.46,8.9,8.9,0,0,1-2.5-6.6q0-8.7,10.32-10.05l8.12-1.08q0-4.9-5.32-4.91a18.14,18.14,0,0,0-10.17,3.19v-7a22.83,22.83,0,0,1,5.28-1.75,27.5,27.5,0,0,1,6.09-.76q12.81,0,12.8,12.77Zm-8.68-12.15v-2l-5.43.7c-3,.39-4.5,1.75-4.5,4.06a3.35,3.35,0,0,0,1.09,2.59,4.23,4.23,0,0,0,3,1,5.47,5.47,0,0,0,4.24-1.8A6.49,6.49,0,0,0,153.66,56.89Z"/><path class="cls-1" d="M198.55,69h-9.2V52.42q0-7-5-7a4.94,4.94,0,0,0-3.95,1.84A7,7,0,0,0,178.89,52V69h-9.24V39.12h9.24v4.73H179a10.59,10.59,0,0,1,9.62-5.46q9.93,0,9.93,12.33Z"/><path class="cls-1" d="M235.2,65.62q0,8.34-4.82,12.91t-14,4.57a22.1,22.1,0,0,1-9.58-1.72V73.6a18.24,18.24,0,0,0,9.32,2.69c3.12,0,5.53-.82,7.25-2.47a8.86,8.86,0,0,0,2.57-6.7V64.75h-.12a10.3,10.3,0,0,1-9.32,5,11.21,11.21,0,0,1-9.09-4q-3.36-4-3.36-10.81,0-7.6,3.74-12.07a12.21,12.21,0,0,1,9.85-4.47,9.09,9.09,0,0,1,8.18,4.2H226V39.12h9.23Zm-9.11-11V52.3a7.25,7.25,0,0,0-1.69-4.84,5.43,5.43,0,0,0-4.36-2,5.66,5.66,0,0,0-4.83,2.4,11.23,11.23,0,0,0-1.75,6.75,9.43,9.43,0,0,0,1.67,5.91,5.4,5.4,0,0,0,4.55,2.18,5.66,5.66,0,0,0,4.64-2.2A9.07,9.07,0,0,0,226.09,54.67Z"/><path class="cls-1" d="M271.36,69h-9.21V64.49H262q-3.42,5.28-9.14,5.28-10.41,0-10.41-12.59V39.12h9.21V56.36q0,6.35,5,6.34a5,5,0,0,0,4-1.74,7,7,0,0,0,1.49-4.72V39.12h9.21Z"/><path class="cls-1" d="M304,69h-8.74V64.75h-.11a9.76,9.76,0,0,1-8.92,5,9.33,9.33,0,0,1-6.85-2.46,8.86,8.86,0,0,1-2.5-6.6q0-8.7,10.32-10.05l8.12-1.08q0-4.9-5.32-4.91a18.14,18.14,0,0,0-10.17,3.19v-7a22.67,22.67,0,0,1,5.28-1.75,27.5,27.5,0,0,1,6.09-.76q12.79,0,12.8,12.77Zm-8.68-12.15v-2l-5.44.7c-3,.39-4.5,1.75-4.5,4.06a3.36,3.36,0,0,0,1.1,2.59,4.23,4.23,0,0,0,3,1,5.45,5.45,0,0,0,4.23-1.8A6.49,6.49,0,0,0,295.35,56.89Z"/><path class="cls-1" d="M340.68,65.62q0,8.34-4.82,12.91t-14,4.57a22.15,22.15,0,0,1-9.59-1.72V73.6a18.3,18.3,0,0,0,9.32,2.69q4.68,0,7.25-2.47a8.82,8.82,0,0,0,2.57-6.7V64.75h-.11a10.32,10.32,0,0,1-9.33,5,11.23,11.23,0,0,1-9.09-4q-3.36-4-3.36-10.81,0-7.6,3.75-12.07a12.19,12.19,0,0,1,9.84-4.47,9.1,9.1,0,0,1,8.19,4.2h.11V39.12h9.24Zm-9.12-11V52.3a7.29,7.29,0,0,0-1.68-4.84,5.45,5.45,0,0,0-4.37-2,5.65,5.65,0,0,0-4.82,2.4,11.23,11.23,0,0,0-1.75,6.75,9.49,9.49,0,0,0,1.66,5.91,5.41,5.41,0,0,0,4.56,2.18,5.65,5.65,0,0,0,4.63-2.2A9.07,9.07,0,0,0,331.56,54.67Z"/><path class="cls-1" d="M375.28,56.71H355.76q.47,6.52,8.21,6.52a16,16,0,0,0,8.68-2.34v6.66a22.78,22.78,0,0,1-10.78,2.22q-7.25,0-11.25-4t-4-11.21q0-7.45,4.33-11.81a14.41,14.41,0,0,1,10.64-4.35q6.54,0,10.12,3.88t3.58,10.55ZM366.72,51q0-6.43-5.2-6.43a5,5,0,0,0-3.85,1.84,8.43,8.43,0,0,0-2,4.59Z"/><path class="cls-1" d="M384.9,69.77a5.36,5.36,0,0,1-3.8-1.4,4.51,4.51,0,0,1-1.52-3.45,4.32,4.32,0,0,1,1.56-3.44,5.78,5.78,0,0,1,3.9-1.35,5.57,5.57,0,0,1,3.88,1.36,4.72,4.72,0,0,1,0,6.93A5.83,5.83,0,0,1,384.9,69.77Z"/><path class="cls-1" d="M421.9,69h-8.74V64.75H413a9.74,9.74,0,0,1-8.91,5,9.33,9.33,0,0,1-6.85-2.46,8.86,8.86,0,0,1-2.5-6.6q0-8.7,10.31-10.05l8.13-1.08q0-4.9-5.32-4.91a18.09,18.09,0,0,0-10.17,3.19v-7A22.56,22.56,0,0,1,403,39.15a27.58,27.58,0,0,1,6.1-.76q12.79,0,12.8,12.77Zm-8.68-12.15v-2l-5.44.7c-3,.39-4.5,1.75-4.5,4.06a3.36,3.36,0,0,0,1.1,2.59,4.22,4.22,0,0,0,3,1,5.46,5.46,0,0,0,4.24-1.8A6.49,6.49,0,0,0,413.22,56.89Z"/><path class="cls-1" d="M476.73,69h-9.21V52q0-6.52-4.79-6.52a4.41,4.41,0,0,0-3.72,2,8.06,8.06,0,0,0-1.43,4.88V69h-9.23V51.8q0-6.34-4.71-6.34a4.49,4.49,0,0,0-3.78,1.87,8.21,8.21,0,0,0-1.42,5.09V69H429.2V39.12h9.24v4.67h.12a11.33,11.33,0,0,1,9.67-5.4q6.34,0,8.68,5.58a11.07,11.07,0,0,1,10-5.58q9.77,0,9.77,12Z"/><path class="cls-2" d="M125.05,119.34l-7.6-14.07-.7-.54C102,93.44,89.93,86.89,78.69,84.11a45.74,45.74,0,0,0-27.62,1.41,45.73,45.73,0,0,0,8.62-26.28c.28-11.58-2.87-25-9.89-42.14l-.33-.82-.25,0L37.9,5.24,12.81,1.14h0L5.89,0C12.79,58.72,0,87.92,0,87.92l2.49,1.86C12.85,97.52,29.6,116.15,34.09,131l1,3.21s37.46-3.61,86.66,17.4l.72-7,0,0Zm-10.74,6.45.54,1.49C90.23,114,75.21,107.64,63.54,105.62c-12.72-2.2-21.66.86-31.85,6.55-.5-.76-1-1.51-1.55-2.26,11.17-7.68,21.53-10.21,33.48-8.2,12.59,2.11,27.9,9.33,49.64,23.39ZM63,108.76c11.78,2,27.28,8.72,53.45,23l.66,1.87C97.76,124.31,83,117.88,70.27,114.79c-14-3.4-25-2.62-35.37,2.53-.48-.82-1-1.65-1.48-2.47C43.16,109.44,51.21,106.73,63,108.76Zm6.51,9.13c13,3.17,28.52,10,49.13,20l.71,2c-36.86-16.35-61.67-27-81.6-17.1-.41-.9-.86-1.8-1.32-2.71C46.05,115.38,56.34,114.69,69.51,117.89Zm44.6-11.16L112.78,121C72,95,51.06,91.61,28.27,107.33l-1.15-1.51L46.41,91.08C66.23,80.73,85.9,85.27,114.11,106.73ZM44.47,88.55,25.13,103.32l-1.21-1.46C45.18,84,47.49,63,33.06,16.65l14.12,2.47C60.47,52,59.67,72.15,44.47,88.55ZM16.53,5.33l1.74,1.21c4.24,22.51,6.79,39.25,6.41,52.67-.38,13.72-3.83,23.54-11.12,31.64-.76-.71-1.5-1.39-2.23-2C26.4,72.21,22.64,45.4,16.53,5.33Zm11.34,54c.36-13-1.95-29-5.87-50.15l1.63,1.13c6.92,29,9.28,45.72,8.15,57.63S25.8,87,17.85,95.11c-.67-.7-1.34-1.38-2-2C23.74,84.36,27.47,73.89,27.87,59.29ZM35,68.2c1.12-11.79-1-27.94-7.4-55.2l1.3.91.38,1.2c7.85,24.67,10.79,41.34,9.52,54-1.22,12.13-6.44,21.5-16.91,30.3-.6-.69-1.2-1.36-1.8-2C28.33,89,33.72,81.17,35,68.2Z"/></g></g></svg>